<?xml version="1.0" encoding="iso-8859-1"?><!DOCTYPE svg PUBLIC "-//W3C//DTD SVG 1.1//EN" "http://www.w3.org/Graphics/SVG/1.1/DTD/svg11.dtd"><svg width="291" height="246" viewBox="0 0 291 246" xmlns="http://www.w3.org/2000/svg" xmlns:xlink="http://www.w3.org/1999/xlink"><svg width="82" height="82" viewBox="-1 -1 433.77 433.77" id="ecg-lines" x="82" xmlns="http://www.w3.org/2000/svg"><path d="M332.314 239.837a15.697 15.697 0 0 0 14.711 10.219h69.044c8.664 0 15.701-7.029 15.701-15.701 0-8.66-7.037-15.701-15.701-15.701h-58.144L326.647 134.7c-2.236-6.014-7.927-10.057-14.335-10.215-6.455-.134-12.282 3.619-14.811 9.506l-28.236 65.866-36.532-136.155c-1.884-7.077-8.491-11.936-15.726-11.621a15.693 15.693 0 0 0-14.853 12.717l-43.703 226.947-30.978-122.495a15.715 15.715 0 0 0-14.349-11.834c-6.899-.294-13.167 3.749-15.577 10.169l-22.506 60.018H15.699C7.025 227.603 0 234.631 0 243.304c0 8.664 7.025 15.7 15.699 15.7h70.214a15.706 15.706 0 0 0 14.704-10.198l8.706-23.22 35.962 142.256c1.773 6.993 8.057 11.862 15.214 11.862.156 0 .307 0 .463-.008a15.712 15.712 0 0 0 14.966-12.728l44.15-229.239L250.69 251.75a15.693 15.693 0 0 0 14.046 11.598c6.561.433 12.908-3.326 15.537-9.474l30.629-71.471 21.412 57.434z" fill="#e6e6e6"/></svg><svg id="facebook" data-name="Layer 1" width="23.23" height="44.01" viewBox="-1 -1 23.23 44.01" x="217.78" y="164" xmlns="http://www.w3.org/2000/svg"><defs><style>.bcls-1{fill:#fff}</style></defs><title>facebook</title><path class="bcls-1" d="M21.23.31V7H17.4a3.55 3.55 0 0 0-2.85.91 4.26 4.26 0 0 0-.74 2.72v4.77H21l-1 7.47h-6.19V42H6.27V22.85H0v-7.47h6.27V9.85q0-4.69 2.55-7.28A9 9 0 0 1 15.63 0a39.57 39.57 0 0 1 5.6.31z"/></svg><svg viewBox="-1 -1 492 492" width="82" height="82" id="factory" y="82" xmlns="http://www.w3.org/2000/svg"><g fill="#e6e6e6"><path d="M488.8 487.8V234.5l-86.5 88.6v-88.6l-86.5 88.6v-88.6l-91.7 94.9-10.4-212.6h-76.1l-10.4 216.8h-24L92.8 116.8H17.7L0 487.9h490v-.1h-1.2zM470.1 467H21.9l15.7-329.4h36.5l10.4 216.8h65.7l10.4-216.8H196l10.4 216.9h24l66.7-68.8v68.8h19.8l66.7-68.8v68.8h19.8l66.7-68.8V467z"/><path d="M415.9 375.3h33.4v20.8h-33.4zM328.4 375.3h33.4v20.8h-33.4zM240.8 375.3h33.4v20.8h-33.4zM186.6 50.1l28.2-34.4-15.7-13.6-33.3 40.7v58.4h20.8zM59.5 50.1l29.1-34.4L72 2.1 38.6 42.8v58.4h20.9z"/></g></svg><svg viewBox="-1 -1 450 450" width="82" height="82" id="forest" x="82" y="82" xmlns="http://www.w3.org/2000/svg"><path d="M448 249c0-57.346-46.654-104-104-104-20.33 0-40.22 6.023-57.089 17.095-4.38-19.182-10.203-37.662-17.235-54.198C250.781 63.469 226.036 39 200 39c-26.065 0-50.81 24.368-69.673 68.615-6.645 15.587-12.212 32.94-16.501 51.01l-26.108-95.73a8 8 0 0 0-15.436.001l-72 264A8 8 0 0 0 8 337h64v64a8 8 0 0 0 16 0v-64h64a7.995 7.995 0 0 0 6.357-3.145 7.99 7.99 0 0 0 1.594-5.606A95.38 95.38 0 0 0 192 336.664V401a8 8 0 0 0 16 0v-64.335c20.768-1.719 39.684-10.067 54.62-22.92A103.978 103.978 0 0 0 336 352.681V401a8 8 0 0 0 16 0v-48.305c53.622-4.098 96-49.041 96-103.695zm-306.474 72H88v-12.686l14.157-14.157a8 8 0 0 0-11.314-11.314L88 285.685V233a8 8 0 0 0-16 0v36.686l-10.343-10.343a8 8 0 0 0-11.314 11.314L72 292.314V321H18.474L80 95.404l27.105 99.383c-2.109 15.543-3.23 31.11-3.23 46.087 0 30.408 14.196 57.559 36.304 75.186l1.347 4.94zM208 308.314l29.657-29.657a8 8 0 0 0-11.314-11.314L208 285.685v-33.371l21.657-21.657a8 8 0 0 0-11.314-11.314L208 229.685V209a8 8 0 0 0-16 0V269.685l-18.343-18.343a8 8 0 0 0-11.314 11.314L192 292.314v28.284c-40.438-4.028-72.125-38.244-72.125-79.724 0-42.544 9.409-90.016 25.17-126.984C161.001 76.465 181.031 55 200 55c18.934 0 38.963 21.563 54.952 59.159 15.763 37.064 25.173 84.435 25.173 126.716 0 41.481-31.687 75.697-72.125 79.724v-12.285zm144 28.319v-12.318l29.657-29.657a8 8 0 0 0-11.314-11.314L352 301.685V249a8 8 0 0 0-16 0v36.686l-18.343-18.343a8 8 0 0 0-11.314 11.314L336 308.314v28.32c-24.538-2.234-47.064-14.677-62.066-34.398 13.85-16.659 22.191-38.054 22.191-61.362 0-19.952-2.01-40.994-5.723-61.656C305.707 167.458 324.618 161 344 161c48.523 0 88 39.477 88 88 0 45.826-35.212 83.577-80 87.633z" fill="#e6e6e6"/></svg><svg id="instagram" data-name="Layer 1" width="44.01" height="44.01" viewBox="-1 -1 44.01 44.01" x="246" xmlns="http://www.w3.org/2000/svg"><defs><style>.ecls-1{fill:#fff}</style></defs><title>instagram</title><path class="ecls-1" d="M37.25 35.49V17.77h-3.69a11.77 11.77 0 0 1 .57 3.58 12.12 12.12 0 0 1-1.75 6.36 12.76 12.76 0 0 1-4.76 4.59 13.13 13.13 0 0 1-6.56 1.7 12.78 12.78 0 0 1-9.19-3.71 12 12 0 0 1-3.83-9 11.77 11.77 0 0 1 .49-3.56H4.68v17.76a1.63 1.63 0 0 0 1.6 1.67h29.3a1.63 1.63 0 0 0 1.17-.47 1.59 1.59 0 0 0 .5-1.2zm-7.77-14.57A7.75 7.75 0 0 0 27 15.14a8.28 8.28 0 0 0-6-2.4 8.25 8.25 0 0 0-5.91 2.39 7.75 7.75 0 0 0-2.47 5.78 7.75 7.75 0 0 0 2.47 5.79A8.25 8.25 0 0 0 21 29.1a8.28 8.28 0 0 0 6-2.4 7.75 7.75 0 0 0 2.48-5.78zm7.76-9.84V6.56a1.84 1.84 0 0 0-.54-1.31 1.8 1.8 0 0 0-1.31-.56h-4.78a1.8 1.8 0 0 0-1.31.56 1.84 1.84 0 0 0-.54 1.31v4.52A1.87 1.87 0 0 0 30.6 13h4.8a1.87 1.87 0 0 0 1.85-1.89zM42 5.39v31.23A5.41 5.41 0 0 1 36.62 42H5.39a5.19 5.19 0 0 1-3.8-1.59A5.19 5.19 0 0 1 0 36.62V5.39a5.19 5.19 0 0 1 1.59-3.8A5.19 5.19 0 0 1 5.39 0h31.23a5.19 5.19 0 0 1 3.8 1.59A5.19 5.19 0 0 1 42 5.39z"/></svg><svg viewBox="-1 -1 46 46" width="82" height="82" id="mail" x="164" y="82" xmlns="http://www.w3.org/2000/svg"><path d="M43 6H1a1 1 0 0 0-1 1v30a1 1 0 0 0 1 1h42a1 1 0 0 0 1-1V7a1 1 0 0 0-1-1zm-1 27.581L29.612 21.194l-1.414 1.414L41.59 36H2.41l13.392-13.392-1.414-1.414L2 33.581V8h40v25.581z" fill="#e6e6e6"/><path d="M39.979 8L22 25.979 4.021 8H2v.807L21.293 28.1a.999.999 0 0 0 1.414 0L42 8.807V8h-2.021z" fill="#e6e6e6"/></svg><svg viewBox="-1 -1 482.3 482.3" width="82" height="82" id="multimedia" xmlns="http://www.w3.org/2000/svg"><g fill="#e6e6e6"><path d="M254.15 234.1V13.5c0-7.5-6-13.5-13.5-13.5s-13.5 6-13.5 13.5v220.6c-31.3 6.3-55 34-55 67.2s23.7 60.9 55 67.2v98.2c0 7.5 6 13.5 13.5 13.5s13.5-6 13.5-13.5v-98.2c31.3-6.3 55-34 55-67.2 0-33.1-23.6-60.9-55-67.2zm-13.5 108.7c-22.9 0-41.5-18.6-41.5-41.5s18.6-41.5 41.5-41.5 41.5 18.6 41.5 41.5-18.6 41.5-41.5 41.5zM88.85 120.9V13.5c0-7.5-6-13.5-13.5-13.5s-13.5 6-13.5 13.5v107.4c-31.3 6.3-55 34-55 67.2s23.7 60.9 55 67.2v211.4c0 7.5 6 13.5 13.5 13.5s13.5-6 13.5-13.5V255.2c31.3-6.3 55-34 55-67.2s-23.7-60.8-55-67.1zm-13.5 108.7c-22.9 0-41.5-18.6-41.5-41.5s18.6-41.5 41.5-41.5 41.5 18.6 41.5 41.5-18.7 41.5-41.5 41.5zM418.45 120.9V13.5c0-7.5-6-13.5-13.5-13.5s-13.5 6-13.5 13.5v107.4c-31.3 6.3-55 34-55 67.2s23.7 60.9 55 67.2v211.5c0 7.5 6 13.5 13.5 13.5s13.5-6 13.5-13.5V255.2c31.3-6.3 55-34 55-67.2s-23.6-60.8-55-67.1zm-13.5 108.7c-22.9 0-41.5-18.6-41.5-41.5s18.6-41.5 41.5-41.5 41.5 18.6 41.5 41.5-18.6 41.5-41.5 41.5z"/></g></svg><svg viewBox="-1 -1 62 62" width="82" height="82" id="music" x="82" y="164" xmlns="http://www.w3.org/2000/svg"><path d="M30 0C13.458 0 0 13.458 0 30s13.458 30 30 30 30-13.458 30-30S46.542 0 30 0zM8.459 23.165a1.001 1.001 0 0 1-1.945-.466c.946-3.935 2.955-7.522 5.809-10.376s6.441-4.862 10.376-5.809a1.001 1.001 0 0 1 .467 1.945c-3.575.859-6.836 2.685-9.429 5.277s-4.419 5.854-5.278 9.429zm3.854 2.061A.999.999 0 0 1 11.338 24a16.925 16.925 0 0 1 12.661-12.661.996.996 0 0 1 1.2.747.999.999 0 0 1-.747 1.2c-2.725.635-5.207 2.014-7.18 3.986s-3.352 4.455-3.986 7.18a1 1 0 0 1-.973.774zm5.802.506a1 1 0 0 1-1.954-.427 12.013 12.013 0 0 1 9.143-9.143 1 1 0 0 1 .427 1.953 10.014 10.014 0 0 0-7.616 7.617zM21.92 30c0-4.455 3.625-8.08 8.08-8.08s8.08 3.625 8.08 8.08-3.625 8.08-8.08 8.08-8.08-3.625-8.08-8.08zm12.56 13.861a1 1 0 0 1-.213-1.976 10.01 10.01 0 0 0 7.617-7.617 1 1 0 0 1 1.953.427 12.013 12.013 0 0 1-9.143 9.143.967.967 0 0 1-.214.023zm1.293 4.827a.999.999 0 0 1-.226-1.973c2.725-.635 5.207-2.014 7.18-3.986s3.352-4.455 3.986-7.18a.993.993 0 0 1 1.2-.747.999.999 0 0 1 .747 1.2 16.925 16.925 0 0 1-12.661 12.661 1.01 1.01 0 0 1-.226.025zm11.905-1.01a21.912 21.912 0 0 1-10.377 5.809 1.002 1.002 0 0 1-1.206-.74 1.001 1.001 0 0 1 .739-1.206c3.576-.859 6.837-2.685 9.43-5.277s4.418-5.854 5.277-9.429a.999.999 0 1 1 1.945.467 21.917 21.917 0 0 1-5.808 10.376z" fill="#e6e6e6"/></svg><svg viewBox="-1 -1 57 57" width="82" height="82" id="music-player" y="164" xmlns="http://www.w3.org/2000/svg"><path d="M52.66.249a1.012 1.012 0 0 0-.789-.241l-31 4.011A1 1 0 0 0 20 5.01v35.613C18.174 38.428 15.273 37 12 37c-5.514 0-10 4.037-10 9s4.486 9 10 9 10-4.037 10-9c0-.232-.019-.46-.039-.687.013-.065.039-.124.039-.192V16.118l29-3.753v18.257C49.174 28.428 46.273 27 43 27c-5.514 0-10 4.037-10 9s4.486 9 10 9c5.464 0 9.913-3.966 9.993-8.867 0-.013.007-.024.007-.037V1a.998.998 0 0 0-.34-.751zM12 53c-4.411 0-8-3.141-8-7s3.589-7 8-7 8 3.141 8 7-3.589 7-8 7zm31-10c-4.411 0-8-3.141-8-7s3.589-7 8-7 8 3.141 8 7-3.589 7-8 7zM22 14.101V5.889l29-3.752V10.348l-29 3.753z" fill="#e6e6e6"/></svg><svg viewBox="-1 -1 417.76 417.76" width="82" height="82" id="satellite" x="164" xmlns="http://www.w3.org/2000/svg"><g fill="#e6e6e6"><path d="M408.26 319.76a7.5 7.5 0 0 0-7.5 7.5c0 40.528-32.972 73.5-73.5 73.5a7.5 7.5 0 0 0 0 15c48.799 0 88.5-39.701 88.5-88.5a7.5 7.5 0 0 0-7.5-7.5z"/><path d="M327.26 388.76c33.911 0 61.5-27.589 61.5-61.5a7.5 7.5 0 0 0-15 0c0 25.64-20.86 46.5-46.5 46.5a7.5 7.5 0 0 0 0 15z"/><path d="M327.26 361.76c19.023 0 34.5-15.477 34.5-34.5a7.5 7.5 0 0 0-15 0c0 10.752-8.748 19.5-19.5 19.5a7.5 7.5 0 0 0 0 15zM322.938 333.545c1.464 1.464 3.384 2.196 5.303 2.196s3.839-.732 5.303-2.197a7.5 7.5 0 0 0 0-10.607l-2.634-2.634 39.244-39.244a7.497 7.497 0 0 0 0-10.606c-19.419-19.419-47.437-25.101-71.907-17.082l-11.906-11.906 18.87-18.87a7.5 7.5 0 0 0 0-10.606l-48.252-48.252 19.055-19.055 23.688 23.688c1.464 1.464 3.384 2.197 5.303 2.197s3.839-.732 5.303-2.197l97.583-97.583a7.497 7.497 0 0 0 0-10.606L349.91 2.197a7.497 7.497 0 0 0-10.606 0L241.721 99.78a7.497 7.497 0 0 0 0 10.606l23.688 23.688-19.055 19.055-36.394-36.394c-14.444-14.443-36.93-16.04-53.167-4.816L139.8 94.927a7.5 7.5 0 0 0-10.606 0l-34.267 34.267a7.497 7.497 0 0 0 0 10.606l16.987 16.986c-4.797 6.913-7.389 15.102-7.389 23.694 0 11.136 4.337 21.604 12.211 29.479l36.394 36.394-19.055 19.055-23.688-23.688a7.5 7.5 0 0 0-10.606 0L2.197 339.304a7.5 7.5 0 0 0 0 10.606l57.983 57.983c1.464 1.464 3.384 2.197 5.303 2.197s3.839-.732 5.303-2.197l97.583-97.583a7.5 7.5 0 0 0 0-10.606l-23.688-23.688 19.055-19.055 48.252 48.252a7.497 7.497 0 0 0 10.606 0l18.874-18.874 11.904 11.904c-8.021 24.471-2.341 52.492 17.08 71.913 1.464 1.465 3.384 2.197 5.303 2.197s3.839-.732 5.303-2.197l39.244-39.244 2.636 2.633zm14.547-213.564l-47.376-47.376 22.021-22.021 47.376 47.376-22.021 22.021zm7.122-101.874l47.376 47.376-21.872 21.872-47.376-47.376 21.872-21.872zm-65.105 65.105l47.376 47.376-21.872 21.872-47.376-47.376 21.872-21.872zM72.605 290.108l47.376 47.376-22.021 22.021-47.376-47.376 22.021-22.021zm-7.122 101.875l-47.376-47.376 21.872-21.872 47.376 47.376-21.872 21.872zm65.105-65.105l-47.376-47.376 21.872-21.872 47.376 47.376-21.872 21.872zm75.063-193.238l63.636 63.636-72.011 72.011-63.636-63.636 72.011-72.011zm-25.169-14.102c4.886 0 9.77 1.338 14.061 3.998l-71.012 71.012a26.508 26.508 0 0 1-4.005-14.067c0-7.129 2.776-13.831 7.817-18.872l34.267-34.267c5.203-5.203 12.036-7.804 18.872-7.804zm-45.985-8.701l11.202 11.202-11.83 11.83-11.83 11.83-11.203-11.202 23.661-23.66zm82.794 178.466l-9.409-9.409 72.011-72.011 9.409 9.409-72.011 72.011zm34.785-13.57l23.66-23.66 7.978 7.978a70.432 70.432 0 0 0-13.263 10.401 70.384 70.384 0 0 0-10.398 13.258l-7.977-7.977zm24.036 78.155c-16.545-21.737-14.896-52.987 4.946-72.829 10.82-10.82 25.032-16.229 39.245-16.229 11.851 0 23.7 3.76 33.584 11.283l-77.775 77.775z"/></g></svg><svg id="twitter" data-name="Layer 1" width="53.78" height="44.06" viewBox="-1 -1 53.78 44.06" x="164" y="164" xmlns="http://www.w3.org/2000/svg"><defs><style>.kcls-1{fill:#fff}</style></defs><title>twitter</title><path class="kcls-1" d="M51.78 5a22.23 22.23 0 0 1-5.32 5.52v1.38a30.15 30.15 0 0 1-1.25 8.53 30.81 30.81 0 0 1-3.76 8.13 32.1 32.1 0 0 1-6.06 6.92 27 27 0 0 1-8.48 4.8 31 31 0 0 1-10.62 1.8A29.47 29.47 0 0 1 0 37.29a22.71 22.71 0 0 0 2.56.13 20.78 20.78 0 0 0 13.17-4.53 10.63 10.63 0 0 1-9.92-7.36 13.45 13.45 0 0 0 2 .16 11 11 0 0 0 2.79-.36 10.44 10.44 0 0 1-6.09-3.67 10.25 10.25 0 0 1-2.41-6.75v-.13a10.52 10.52 0 0 0 4.8 1.34 10.6 10.6 0 0 1-3.45-3.78 10.34 10.34 0 0 1-1.28-5.07 10.4 10.4 0 0 1 1.45-5.33 30.08 30.08 0 0 0 9.71 7.83A29.57 29.57 0 0 0 25.53 13a11.79 11.79 0 0 1-.26-2.43 10.23 10.23 0 0 1 3-7.48 10.64 10.64 0 0 1 15 0l.21.22A20.81 20.81 0 0 0 50.33.8a10.3 10.3 0 0 1-4.67 5.85A21.14 21.14 0 0 0 51.78 5z"/></svg><svg id="youtube" data-name="Layer 1" width="36.75" height="44" viewBox="-1 -1 36.75 44" x="246" y="44.01" xmlns="http://www.w3.org/2000/svg"><defs><style>.lcls-1{fill:#fff}</style></defs><title>youtube</title><path class="lcls-1" d="M22.13 29.15v5q0 1.57-.91 1.57a1.5 1.5 0 0 1-1.06-.52v-7.11a1.5 1.5 0 0 1 1.06-.54q.91 0 .91 1.6zm7.92 0v1.08h-2.1v-1.06q0-1.59 1.06-1.59t1 1.59zM7.42 24h2.5v-2.14h-7.3v2.2h2.46V37.4h2.34V24zm6.75 13.4h2.09V25.82h-2.09v8.86a1.86 1.86 0 0 1-1.31 1 .48.48 0 0 1-.49-.47 6.52 6.52 0 0 1 0-.82v-8.57h-2.14V35a5.79 5.79 0 0 0 .19 1.71 1.26 1.26 0 0 0 1.36.87 3.43 3.43 0 0 0 2.39-1.43v1.25zm10.05-3.47v-4.6A8.33 8.33 0 0 0 24 27a1.63 1.63 0 0 0-1.67-1.31A2.82 2.82 0 0 0 20.16 27v-5.1h-2.08v15.5h2.09v-1.13a2.91 2.91 0 0 0 2.18 1.31A1.62 1.62 0 0 0 24 36.27a8.61 8.61 0 0 0 .22-2.35zm7.92-.24v-.3H30a11.6 11.6 0 0 1 0 1.43.9.9 0 0 1-.94.85q-1.08 0-1.08-1.61V32h4.19v-2.41a4.65 4.65 0 0 0-.66-2.72 3.2 3.2 0 0 0-5 0 4.52 4.52 0 0 0-.66 2.72v4.05a4.4 4.4 0 0 0 .66 2.72 3 3 0 0 0 2.49 1.2 2.9 2.9 0 0 0 3-2.51 10.31 10.31 0 0 0 .09-1.36zM17.89 12.3V7.38q0-1.61-1-1.61t-1 1.61v4.92q0 1.64 1 1.64t1-1.64zm16.85 17.6a40.6 40.6 0 0 1-.61 8.2 4.45 4.45 0 0 1-1.36 2.32 4.1 4.1 0 0 1-2.39 1.08 125.31 125.31 0 0 1-13 .49 125.31 125.31 0 0 1-13-.49A4.15 4.15 0 0 1 2 40.42 4.28 4.28 0 0 1 .63 38.1 39.76 39.76 0 0 1 0 29.9a40.6 40.6 0 0 1 .61-8.2A4.45 4.45 0 0 1 2 19.37a4.25 4.25 0 0 1 2.41-1.1q4.29-.47 13-.47t13 .47a4.4 4.4 0 0 1 3.75 3.42 39.76 39.76 0 0 1 .58 8.21zM11.35 0h2.39l-2.83 9.35v6.35H8.57V9.35a39.68 39.68 0 0 0-1.43-5Q6.27 2 5.61 0H8.1l1.67 6.16zM20 7.8v4.1a4.59 4.59 0 0 1-.66 2.76 2.88 2.88 0 0 1-2.49 1.19 2.9 2.9 0 0 1-2.46-1.19 4.68 4.68 0 0 1-.66-2.76V7.8a4.59 4.59 0 0 1 .66-2.74 2.9 2.9 0 0 1 2.46-1.19 2.88 2.88 0 0 1 2.49 1.19A4.59 4.59 0 0 1 20 7.8zM27.87 4v11.7h-2.13v-1.27a3.37 3.37 0 0 1-2.41 1.45A1.31 1.31 0 0 1 22 15a6 6 0 0 1-.19-1.76V4h2.13v8.6a6.14 6.14 0 0 0 0 .82.49.49 0 0 0 .47.52 1.87 1.87 0 0 0 1.31-1V4h2.16z"/></svg></svg>